<?xml version="1.0" encoding="utf-8"?>
<!-- Generator: Adobe Illustrator 18.1.1, SVG Export Plug-In . SVG Version: 6.00 Build 0)  -->
<svg version="1.1" id="Слой_1" xmlns="http://www.w3.org/2000/svg" xmlns:xlink="http://www.w3.org/1999/xlink" x="0px" y="0px"
	 viewBox="0 0 50 50" enable-background="new 0 0 50 50" xml:space="preserve">
<g>
	<circle opacity="0.96" fill="#FF3C6A" cx="25" cy="25" r="25"/>
	<g>
		<g>
			<path fill="none" d="M5.7,31.5c0.4,0.2,0.6,0.1,0.8-0.2c0.6-0.9,1.3-2.2,2-3.6c0.4,0.1,0.8,0.3,1.2,0.5c0.8,0.3,1.6,0.6,1.7,0.7
				c0.1,0.1,0.3,0.1,0.4,0.1c0,0,0,0,0,0c0.3,0,0.6-0.2,0.7-0.4l0,0l0,0c0.2-0.3,0.4-0.6,0.6-0.9c0.6,0.6,1.2,1.1,1.8,1.5
				c0,0,0,0.1-0.1,0.1l0,0c-0.2,0.2-0.2,0.5-0.2,0.8c0,0.3,0.1,0.6,0.3,0.9c0.2,0.3,0.3,0.4,0.5,0.6c0.2,0.2,0.5,0.2,0.7,0.2
				c0,0,0,0,0,0c0.1,0,0.2,0,0.3,0c0,0.1,0,0.2,0,0.3c0,0.4,0.2,0.9,0.6,1.2c0.3,0.3,0.8,0.6,1.2,0.6c0,0,0,0,0,0
				c0.2,0,0.4,0,0.5-0.1c0,0,0,0,0.1,0c0,0,0,0.1,0,0.1c0,0.4,0.3,0.7,0.6,1c0.3,0.2,0.7,0.4,1.1,0.4c0.1,0,0.3,0,0.4-0.1
				c0,0,0,0.1,0,0.1c0,0.1,0,0.1,0,0.2c0.1,0.2,0.2,0.5,0.4,0.7c0.2,0.2,0.5,0.3,0.9,0.3c0.1,0,0.2,0,0.3,0c0.7,0,1.2-0.3,1.6-0.6
				c0.5,0.2,1.1,0.4,1.4,0.5c0.1,0,0.2,0,0.3,0c0.5,0,0.8-0.3,1.1-0.5c0.2,0,0.3,0,0.5,0c0.6,0,1.1-0.2,1.4-0.4
				c0.3-0.2,0.5-0.4,0.7-0.6c0.2,0,0.4,0.1,0.6,0.1c0.5,0,0.9-0.2,1.1-0.3c0.1-0.1,0.3-0.2,0.4-0.4c0.1-0.2,0.2-0.4,0.3-0.8
				c0.7-0.1,1.2-0.3,1.5-0.6c0.3-0.3,0.3-0.7,0.4-0.9c0-0.1,0.1-0.2,0.1-0.3c0-0.1,0-0.3-0.1-0.4c0-0.1-0.1-0.1-0.1-0.2
				c0.3-0.2,0.8-0.5,1.2-0.8c0.1,0.2,0.3,0.5,0.6,0.7c0.2,0.2,0.5,0.2,0.8,0.3c0.3,0.1,0.7,0.1,1.1,0.1c0.3,0,0.5,0,0.8,0
				c0.4-0.1,0.8-0.2,1.2-0.4c0.2,0.6,1.3,1.8,1.7,2.1c0.3,0.2,0.7,0.7,1.1,0.4"/>
			<path fill="none" d="M46.4,13c-2.5,1.4-10.5,5.4-12.1,6.2c-0.3,0.2-0.5,0.4-0.6,0.5c-0.3,0.1-0.6,0.3-0.9,0.4
				c-0.2,0.1-0.5,0.2-0.7,0.4c-0.2,0.1-0.3,0.2-0.4,0.2c-0.7-0.2-3.1-1-4.4-1.6c-0.6-0.3-1.1-0.4-1.5-0.4c-0.6,0-1,0.2-1.3,0.4
				c-0.2,0.1-0.4,0.2-0.7,0.3c-0.2,0-0.5,0-0.8,0c-0.9-0.1-1.9-0.1-2.6-0.1c-1.2,0-3,0-4.1-0.4c0-0.3-0.1-0.6-0.4-0.8
				c-0.1,0-0.3-0.1-0.6-0.2c-0.9-0.3-2.5-0.9-3-1.1c-0.1-0.2-0.3-0.4-0.7-0.6"/>
		</g>
		<path fill="#F8F8F8" d="M15.5,31.4c-0.2-0.1-0.4-0.3-0.5-0.6l0,0c-0.2-0.3-0.3-0.6-0.3-0.9l0,0c0-0.3,0.1-0.5,0.2-0.8l0,0l0,0
			c0.2-0.3,0.5-0.5,0.8-0.7l0,0c0.3-0.2,0.6-0.4,0.9-0.4l0,0c0,0,0,0,0,0l0,0c0.3,0,0.7,0.2,1,0.4l0,0c0.3,0.3,0.5,0.6,0.5,1.1l0,0
			c0,0.5-0.2,1-0.8,1.5l0,0c-0.3,0.3-0.7,0.5-1.2,0.6l0,0c0,0,0,0,0,0l0,0C15.9,31.6,15.7,31.6,15.5,31.4L15.5,31.4z M15.3,29.5
			c-0.1,0.2-0.2,0.3-0.2,0.5l0,0c0,0.2,0.1,0.5,0.2,0.7l0,0c0.1,0.2,0.3,0.4,0.4,0.4l0,0c0.2,0.1,0.3,0.1,0.5,0.1l0,0
			c0.3,0,0.7-0.2,0.9-0.4l0,0c0.5-0.5,0.6-0.9,0.6-1.2l0,0c0-0.3-0.1-0.6-0.4-0.7l0,0c-0.2-0.2-0.5-0.3-0.7-0.3l0,0c0,0,0,0,0,0l0,0
			c-0.1,0-0.4,0.1-0.7,0.3l0,0C15.7,29,15.4,29.3,15.3,29.5L15.3,29.5l-0.2-0.1L15.3,29.5L15.3,29.5z"/>
		<path fill="#F8F8F8" d="M18.2,33.7c-0.5,0-0.9-0.2-1.2-0.6l0,0c-0.3-0.3-0.6-0.8-0.6-1.2l0,0c0-0.2,0.1-0.5,0.2-0.7l0,0
			c0.4-0.5,1.1-1,1.5-1.2l0,0c0.1-0.1,0.3-0.1,0.5-0.1l0,0c0.5,0,1,0.1,1.3,0.5l0,0c0.2,0.3,0.5,0.7,0.5,1.2l0,0
			c0,0.2-0.1,0.5-0.3,0.7l0,0c-0.5,0.5-0.9,1-1.5,1.3l0,0C18.5,33.7,18.3,33.7,18.2,33.7L18.2,33.7C18.2,33.7,18.2,33.7,18.2,33.7
			L18.2,33.7z M17,31.5c-0.1,0.1-0.1,0.3-0.1,0.4l0,0c0,0.3,0.2,0.6,0.4,0.9l0,0c0.3,0.3,0.6,0.4,0.9,0.4l0,0c0.1,0,0.2,0,0.3-0.1
			l0,0c0.5-0.3,0.9-0.6,1.4-1.2l0,0c0.1-0.1,0.2-0.3,0.2-0.4l0,0c0-0.3-0.2-0.7-0.4-0.9l0,0c-0.1-0.2-0.6-0.3-1-0.3l0,0
			c-0.1,0-0.3,0-0.3,0l0,0C18,30.6,17.3,31.1,17,31.5L17,31.5l-0.2-0.1L17,31.5L17,31.5z"/>
		<path fill="#F8F8F8" d="M19.3,34.7c-0.3-0.2-0.6-0.6-0.6-1l0,0c0-0.2,0-0.3,0.1-0.5l0,0v0c0.3-0.5,0.8-1,1.2-1.4l0,0
			c0.3-0.3,0.7-0.6,1.2-0.6l0,0c0.1,0,0.3,0,0.4,0.1l0,0c0.4,0.2,0.9,0.6,0.9,1.2l0,0c0,0.2,0,0.4-0.1,0.5l0,0
			c-0.4,0.6-0.8,1.5-1.5,1.9l0,0c-0.2,0.1-0.3,0.1-0.5,0.1l0,0C20,35.1,19.6,34.9,19.3,34.7L19.3,34.7z M19.2,33.4
			c-0.1,0.1-0.1,0.2-0.1,0.3l0,0c0,0.2,0.1,0.5,0.4,0.7l0,0c0.2,0.2,0.6,0.3,0.8,0.3l0,0c0.1,0,0.2,0,0.3-0.1l0,0
			c0.5-0.3,1-1.1,1.3-1.7l0,0c0.1-0.1,0.1-0.2,0.1-0.3l0,0c0-0.3-0.3-0.7-0.6-0.8l0,0c-0.1,0-0.2-0.1-0.3-0.1l0,0
			c-0.3,0-0.6,0.2-0.9,0.4l0,0C20,32.5,19.5,33,19.2,33.4L19.2,33.4l-0.2-0.1L19.2,33.4L19.2,33.4z"/>
		<path fill="#F8F8F8" d="M22.1,36.3c-0.4-0.1-0.7-0.2-0.9-0.3l0,0c-0.2-0.2-0.3-0.4-0.4-0.7l0,0l0.2-0.1l0.2-0.1
			c0.1,0.2,0.1,0.4,0.3,0.5l0,0c0.1,0.1,0.3,0.2,0.7,0.2l0,0c0.1,0,0.1,0,0.2,0l0,0c0.4,0,0.8-0.2,1.1-0.4l0,0
			c-0.1-0.2-0.3-0.3-0.4-0.3L23,35.3l-0.3,0.2l0.2-0.5c0.1-0.3,0.1-0.5,0.1-0.7l0,0c0-0.4-0.2-0.6-0.3-0.7l0,0
			c-0.1-0.1-0.2-0.1-0.3-0.1l0,0c-0.2,0-0.3,0.1-0.5,0.3l0,0c-0.2,0.2-0.3,0.4-0.5,0.7l0,0c-0.1,0.2-0.2,0.5-0.2,0.6l0,0
			c0,0,0,0.1,0,0.1l0,0L21,35.3l-0.2,0.1c0-0.1,0-0.1,0-0.2l0,0c0-0.3,0.1-0.5,0.3-0.8l0,0c0.2-0.3,0.3-0.5,0.5-0.7l0,0
			c0.2-0.3,0.6-0.4,0.9-0.4l0,0c0.2,0,0.4,0.1,0.6,0.2l0,0c0.2,0.2,0.5,0.5,0.5,1l0,0c0,0.2,0,0.4-0.1,0.6l0,0
			c0.2,0.1,0.4,0.2,0.6,0.3l0,0l0.3,0.1l-0.3,0.2c-0.3,0.3-0.9,0.7-1.7,0.7l0,0C22.3,36.3,22.2,36.3,22.1,36.3L22.1,36.3z"/>
		<path fill="#F8F8F8" d="M26.7,35.5c-1.1-0.2-2.6-1.5-3.6-2.6l0,0c0,0,0-0.1,0-0.2l0,0c0,0,0.1,0,0.2,0l0,0c1,1.1,2.5,2.3,3.5,2.5
			l0,0l0,0c0.1,0,0.1,0.1,0.1,0.1l0,0C26.8,35.5,26.7,35.5,26.7,35.5L26.7,35.5C26.7,35.5,26.7,35.5,26.7,35.5L26.7,35.5z"/>
		<path fill="#F8F8F8" d="M29.3,34.6c-1-0.2-2.8-1.7-4.2-3.3l0,0c0,0,0-0.1,0-0.2l0,0c0,0,0.1,0,0.2,0l0,0c1.3,1.6,3.2,3.1,4,3.2
			l0,0v0c0.1,0,0.1,0.1,0.1,0.1l0,0C29.4,34.6,29.4,34.6,29.3,34.6L29.3,34.6C29.3,34.6,29.3,34.6,29.3,34.6L29.3,34.6z"/>
		<path fill="#F8F8F8" d="M31.6,33.2c-0.7-0.3-2.1-1.4-2.6-1.9l0,0c-0.2-0.2-0.7-0.8-1.2-1.4l0,0c-0.5-0.6-0.9-1.2-1-1.5l0,0
			c0-0.1,0-0.1,0.1-0.1l0,0c0.1,0,0.1,0,0.1,0.1l0,0c0,0.2,0.5,0.8,1,1.4l0,0c0.5,0.6,1,1.2,1.2,1.4l0,0c0.4,0.4,1.8,1.6,2.5,1.8
			l0,0l0,0c0.1,0,0.1,0.1,0.1,0.1l0,0C31.7,33.2,31.7,33.2,31.6,33.2L31.6,33.2C31.6,33.2,31.6,33.2,31.6,33.2L31.6,33.2z"/>
		<path fill="#F8F8F8" d="M11.7,16.3c-0.6-0.2-3.6-1.4-6.1-2.5c-0.1,0.1-0.1,0.3-0.2,0.4c2.5,1.1,5.6,2.3,6.1,2.6
			c0.5,0.2,0.6,0.4,0.4,1.3c-0.3,0.9-3.7,10-5.8,13c-0.1,0.1-0.1,0.1-0.1,0.1c0,0-0.1,0-0.2-0.1C5.6,31,4.8,30.7,4,30.3
			c0,0-0.4-0.2-0.8-0.3c0,0.2,0.1,0.3,0.1,0.5c1.2,0.5,2.2,1,2.4,1c0.1,0.1,0.3,0.1,0.4,0.1c0.2,0,0.3-0.1,0.5-0.3
			c2.2-3.1,5.6-12.3,5.9-13.2C12.7,17.2,12.6,16.6,11.7,16.3z"/>
		<path fill="#F8F8F8" d="M32.9,31.1c-0.5-0.5-2.6-2.7-3.5-3.6l0,0c-1.2-0.2-2.2-0.8-2.9-1.6l0,0c-0.7-0.7-1.1-1.6-1.2-2.4l0,0
			c-0.1,0-0.2,0-0.4,0.1l0,0c-0.3,0-0.6,0.1-0.8,0.1l0,0c-0.1,0-0.1,0-0.2,0l0,0c-0.2,0.4-0.4,0.8-0.8,1.3l0,0
			c-0.4,0.5-0.8,0.9-1.2,1.1l0,0c-0.3,0.1-0.6,0.2-0.9,0.2l0,0c-0.3,0-0.6-0.1-0.8-0.2l0,0c-0.3-0.1-0.5-0.4-0.5-0.7l0,0l0,0v0
			c0-0.3,0.1-0.6,0.2-0.9l0,0c0.1-0.3,0.2-0.6,0.3-0.8l0,0c0.1-0.4,0.2-1.5,0.3-1.9l0,0c0-0.2,0.1-0.5,0.3-0.8l0,0
			c0.2-0.3,0.5-0.5,1-0.7l0,0c0.9-0.2,2.1-0.6,2.8-0.9l0,0c0.4-0.2,0.8-0.4,1.4-0.4l0,0c0.4,0,0.9,0.1,1.5,0.4l0,0
			c1.4,0.7,4,1.5,4.5,1.6l0,0l0.1,0l0.1,0.1c1,1.5,2.4,4.2,3.3,8.6l0,0l0,0.1l-0.1,0.1c-0.4,0.4-1.6,1.2-2.1,1.5l0,0L33,31.2
			L32.9,31.1L32.9,31.1z M25.6,23.2c0,0.8,0.4,1.7,1.1,2.4l0,0c0.7,0.7,1.7,1.3,2.8,1.4l0,0l0.1,0l0.1,0.1c0.7,0.8,2.7,2.9,3.4,3.5
			l0,0c0.5-0.3,1.4-0.9,1.8-1.2l0,0c-0.9-4.1-2.2-6.8-3.2-8.2l0,0c-0.7-0.2-3.2-1-4.5-1.6l0,0c-0.6-0.3-1-0.4-1.3-0.4l0,0
			c-0.4,0-0.7,0.2-1.2,0.4l0,0c-0.7,0.3-2,0.7-2.9,1l0,0c-0.4,0.1-0.7,0.3-0.8,0.5l0,0c-0.1,0.2-0.2,0.4-0.2,0.6l0,0
			c-0.1,0.4-0.2,1.5-0.3,1.9l0,0c-0.1,0.2-0.2,0.5-0.3,0.8l0,0c-0.1,0.3-0.2,0.5-0.2,0.7l0,0c0.1,0.2,0.2,0.3,0.3,0.4l0,0
			c0.2,0.1,0.4,0.1,0.6,0.1l0,0c0.3,0,0.5-0.1,0.7-0.1l0,0c0.3-0.1,0.7-0.5,1-1l0,0c0.3-0.5,0.6-1,0.8-1.3l0,0l0.1-0.2l0.2,0.1
			c0,0,0.1,0,0.3,0l0,0c0.2,0,0.5,0,0.8-0.1l0,0c0.3,0,0.5-0.1,0.6-0.1l0,0l0.3-0.1L25.6,23.2L25.6,23.2z"/>
		<path fill="#F8F8F8" d="M29,27.4l0.1-0.4c0.6,0.2,2.2,0.1,2.2,0.1c-0.4,0.4-1.3,0.4-1.5,0.4l0,0c0,0,0,0,0,0l0,0
			C29.6,27.5,29.4,27.5,29,27.4L29,27.4z M29,27.4L29,27.4L29,27.4L29,27.4L29,27.4L29,27.4z"/>
		<path fill="#F8F8F8" d="M35.3,29.4c0.1,0.4,0.3,1.3,0,1.4c-0.3,0-0.6-0.7-0.6-0.9C34.8,29.8,35.3,29.4,35.3,29.4z"/>
		<path fill="#F8F8F8" d="M41.4,33C41.4,33,41.4,33,41.4,33c-0.2,0-0.4-0.1-0.5-0.2c-0.1,0-0.1-0.1-0.1-0.1
			c-0.3-0.3-1.3-1.4-1.5-1.9c0.1-0.1,0.2-0.1,0.3-0.2l0.1,0c0.6-0.3,0.4-0.8,0-1.8c-0.1-0.2-0.2-0.5-0.4-0.9
			c-0.8-1.9-4.2-7.4-4.2-7.5c-0.2-0.3-0.4-0.5-0.6-0.7l0,0l0,0c0.6-0.3,1.9-1,3.5-1.8c2.1-1.1,4.7-2.4,6.6-3.4
			c-0.1-0.1-0.1-0.3-0.2-0.4c-3.4,1.8-8.8,4.5-10.2,5.2c-0.4,0.2-0.7,0.5-0.6,0.6c0,0,0.1,0,0.1,0c0.3,0,0.6,0.1,0.9,0.7
			c0.4,0.7,3.5,5.6,4.2,7.4c0.7,1.8,0.9,2,0.6,2.1c-0.3,0.2-0.7,0.4-0.7,0.7c0.1,0.5,1.3,1.9,1.7,2.2c0.2,0.2,0.5,0.5,0.8,0.5
			c0.1,0,0.2,0,0.3-0.1c0.2-0.2,2.5-1.4,5-2.8c0-0.2,0.1-0.4,0.1-0.6C44.2,31.4,41.7,32.8,41.4,33z"/>
		<path fill="#F8F8F8" d="M25.4,23.2c-0.1,0-0.2,0.1-0.4,0.1c0.1,0.1,0.3,0.1,0.4,0.2C25.4,23.4,25.4,23.3,25.4,23.2z M23.4,35
			C23.4,35,23.4,35,23.4,35C23.4,35,23.4,35,23.4,35C23.4,35,23.4,35,23.4,35z M33.5,31.2c-0.1-0.1-0.2-0.2-0.3-0.3
			c-0.1,0-0.1,0.1-0.2,0.1c-0.5-0.5-2.7-2.8-3.5-3.7c-0.1,0-0.2,0-0.3-0.1c0.5,0.5,0.9,1,1.2,1.3c0.7,0.7,2,2.1,2.5,2.6
			c0.2,0.1,0.2,0.2,0.3,0.3c0,0.1,0,0.1,0,0.1c0,0,0,0.1,0,0.2c0,0.2-0.1,0.4-0.3,0.7c-0.2,0.2-0.6,0.5-1.3,0.5l-0.2,0l0,0.2
			c0,0.5-0.1,0.7-0.2,0.8c-0.1,0.1-0.2,0.2-0.3,0.3c-0.1,0.1-0.4,0.2-0.8,0.2c-0.2,0-0.4,0-0.7-0.1l-0.2,0L29,34.5
			c-0.1,0.1-0.3,0.4-0.6,0.6c-0.3,0.2-0.7,0.3-1.2,0.3c-0.2,0-0.4,0-0.6-0.1l-0.1,0l-0.1,0.1c-0.1,0.2-0.5,0.5-0.8,0.5
			c-0.1,0-0.1,0-0.2,0c-0.2-0.1-0.7-0.2-1.1-0.4l-0.3,0.2c0,0-0.1,0.1-0.1,0.1c0.5,0.2,1.1,0.4,1.4,0.5c0.1,0,0.2,0,0.3,0
			c0.5,0,0.8-0.3,1.1-0.5c0.2,0,0.3,0,0.5,0c0.6,0,1.1-0.2,1.4-0.4c0.3-0.2,0.5-0.4,0.7-0.6c0.2,0,0.4,0.1,0.6,0.1
			c0.5,0,0.9-0.2,1.1-0.3c0.1-0.1,0.3-0.2,0.4-0.4c0.1-0.2,0.2-0.4,0.3-0.8c0.7-0.1,1.2-0.3,1.5-0.6c0.3-0.3,0.3-0.7,0.4-0.9
			c0-0.1,0.1-0.2,0.1-0.3C33.6,31.4,33.6,31.3,33.5,31.2z M23.1,19.5c-0.9-0.1-1.9-0.1-2.6-0.1c-1.3,0-3.1,0-4.1-0.4l-0.2-0.1
			l-0.1,0.2c-0.6,2.8-1.9,5.9-3,8.2L13,27.4l0.1,0.1c0.6,0.6,1.3,1.2,1.9,1.6c0.1-0.1,0.2-0.2,0.3-0.3c-0.6-0.4-1.2-0.9-1.8-1.5
			c1-2.2,2.3-5.2,2.9-7.9c1.2,0.4,2.9,0.3,4,0.4c0.6,0,1.6,0.1,2.6,0.1c0.1,0,0.2,0,0.3,0c0.4-0.1,0.7-0.2,1-0.4
			C24,19.5,23.5,19.5,23.1,19.5z"/>
		<path fill="#F8F8F8" d="M16.1,18.2c-0.1,0-0.3-0.1-0.6-0.2c-0.9-0.3-2.5-0.9-3-1.1c0.1,0.1,0.1,0.3,0.1,0.5
			c0.4,0.1,1.1,0.4,1.7,0.6c0.4,0.1,0.8,0.3,1,0.4c0.3,0.1,0.5,0.2,0.6,0.2c0.1,0,0.2,0.2,0.2,0.4c0,0.1,0,0.2,0,0.3
			c-0.1,0.4-1.9,6.5-3.7,9c-0.1,0.1-0.2,0.2-0.4,0.2c-0.1,0-0.1,0-0.2-0.1c-0.2-0.1-1-0.4-1.8-0.7c-0.4-0.2-0.9-0.3-1.2-0.5
			c-0.1,0.1-0.1,0.3-0.2,0.4c0.4,0.1,0.8,0.3,1.2,0.5c0.8,0.3,1.6,0.6,1.7,0.7c0.1,0.1,0.3,0.1,0.4,0.1c0,0,0,0,0,0
			c0.3,0,0.6-0.2,0.7-0.4l0,0l0,0c1.8-2.6,3.6-8.7,3.7-9.1c0-0.1,0.1-0.3,0.1-0.4C16.4,18.7,16.4,18.4,16.1,18.2z"/>
		<path fill="#F8F8F8" d="M36.9,30.8c-0.3,0-0.7,0-1-0.1c-0.3,0-0.5-0.1-0.6-0.2c-0.2-0.2-0.4-0.5-0.5-0.6c0.3-0.2,0.3-0.2,0.3-0.2
			l0.1-0.1l0-0.1c-0.2-1.1-1.6-5.6-2.3-7.2c-0.3-0.7-0.6-1-0.8-1.3c0.1,0,0.1-0.1,0.2-0.1c0.5-0.3,1.4-0.7,1.8-0.9
			c0.2,0.1,0.4,0.4,0.7,0.8c0.1,0.1,0.2,0.3,0.3,0.4c-0.2-0.3-0.3-0.7-0.4-0.8c-0.4-0.7-0.8-0.6-1.1-0.6c0,0,0-0.1,0-0.1
			c-0.3,0.1-0.6,0.3-0.9,0.4c-0.3,0.1-0.5,0.2-0.7,0.4c-0.2,0.1-0.4,0.2-0.5,0.3l-0.2,0.2l0.2,0.2c0.3,0.2,0.5,0.4,0.9,1.3
			c0.7,1.4,2,5.7,2.2,6.9c-0.1,0-0.2,0.1-0.3,0.3l-0.1,0.1l0,0.1c0.1,0.3,0.3,0.7,0.7,1c0.2,0.2,0.5,0.2,0.8,0.3
			c0.3,0.1,0.7,0.1,1.1,0.1c0.3,0,0.5,0,0.8,0c0.4-0.1,0.8-0.2,1.2-0.4c0,0,0-0.1,0-0.1c-0.1-0.3,0.3-0.5,0.7-0.7c0,0,0.1,0,0.1-0.1
			c-0.6,0.3-1.4,0.7-2,0.7C37.4,30.8,37.2,30.8,36.9,30.8z M39,28c-0.2-0.4-0.5-1-0.8-1.6l1.5,3.6C39.7,29.7,39.5,29.2,39,28z"/>
	</g>
</g>
</svg>
