<?xml version="1.0" encoding="iso-8859-1"?>
<!-- Generator: Adobe Illustrator 18.0.0, SVG Export Plug-In . SVG Version: 6.00 Build 0)  -->
<!DOCTYPE svg PUBLIC "-//W3C//DTD SVG 1.1//EN" "http://www.w3.org/Graphics/SVG/1.1/DTD/svg11.dtd">
<svg xmlns="http://www.w3.org/2000/svg" xmlns:xlink="http://www.w3.org/1999/xlink" version="1.1" id="Capa_1" x="0px" y="0px" viewBox="0 0 297 297" style="enable-background:new 0 0 297 297;" xml:space="preserve" width="512px" height="512px">
<g>
	<path d="M291.888,93.108L153.492,14.476c-3.096-1.759-6.887-1.759-9.982,0L5.113,93.108c-3.986,2.266-5.948,6.932-4.776,11.364   c1.171,4.434,5.182,7.522,9.767,7.522h24.498v161.748c0,5.578,4.522,10.102,10.102,10.102h207.596   c5.578,0,10.102-4.523,10.102-10.102V111.994h24.498c4.585,0,8.595-3.088,9.766-7.522   C297.836,100.04,295.874,95.374,291.888,93.108z M242.197,101.892V263.64H54.804V101.892c0-4.574-3.04-8.438-7.211-9.683   L148.5,34.876l100.907,57.333C245.237,93.453,242.197,97.317,242.197,101.892z" fill="#ff3c6a"/>
	<path d="M112.568,102.842c-25.39,0-46.045,20.761-46.045,46.278c0,18.996,13.29,39.916,39.502,62.18   c18.44,15.662,36.628,26.318,37.394,26.765c1.572,0.916,3.33,1.374,5.087,1.374c1.758,0,3.515-0.458,5.088-1.374   c0.765-0.446,18.951-11.104,37.388-26.766c26.208-22.264,39.496-43.184,39.496-62.179c0-25.518-20.654-46.278-46.042-46.278   c-14.518,0-27.487,6.792-35.931,17.382C140.06,109.634,127.087,102.842,112.568,102.842z M148.505,159.223   c5.578,0,10.102-4.523,10.102-10.103c0-14.377,11.587-26.074,25.828-26.074c14.248,0,25.839,11.697,25.839,26.074   c0,22.138-35.97,52.274-61.769,68.41c-25.804-16.136-61.779-46.272-61.779-68.41c0-14.377,11.593-26.074,25.842-26.074   c14.246,0,25.836,11.697,25.836,26.074C138.404,154.699,142.926,159.223,148.505,159.223z" fill="#ff3c6a"/>
</g>
<g>
</g>
<g>
</g>
<g>
</g>
<g>
</g>
<g>
</g>
<g>
</g>
<g>
</g>
<g>
</g>
<g>
</g>
<g>
</g>
<g>
</g>
<g>
</g>
<g>
</g>
<g>
</g>
<g>
</g>
</svg>
