<?xml version="1.0" encoding="iso-8859-1"?>
<!-- Generator: Adobe Illustrator 17.1.0, SVG Export Plug-In . SVG Version: 6.00 Build 0)  -->
<!DOCTYPE svg PUBLIC "-//W3C//DTD SVG 1.1//EN" "http://www.w3.org/Graphics/SVG/1.1/DTD/svg11.dtd">
<svg xmlns="http://www.w3.org/2000/svg" xmlns:xlink="http://www.w3.org/1999/xlink" version="1.1" id="Capa_1" x="0px" y="0px" viewBox="0 0 460.107 460.107" style="enable-background:new 0 0 460.107 460.107;" xml:space="preserve" width="512px" height="512px">
<g>
	<path d="M216.022,136.984c-3.174-5.555-8.678-10.851-18.746-10.851c-20.045,0-60.136,0-80.181,0c-9.501,0-15.953,4.642-19.5,10.85   l-51.458,90c-5.814,10.171-2.271,23.175,7.899,28.989c2.544,1.452,5.295,2.351,8.178,2.674c0.776,0.087,1.566,0.131,2.349,0.131   c5.295,0,10.326-1.988,14.171-5.418l-11.855,67.649c-0.762,4.344,0.267,8.458,2.894,11.586c2.627,3.127,6.502,4.849,10.911,4.849   h25.762v100.433c0,12.259,9.972,22.231,22.229,22.231c12.259,0,22.232-9.973,22.232-22.231V337.443h9.098v100.433   c0,12.259,9.972,22.231,22.229,22.231c12.259,0,22.231-9.973,22.231-22.231V337.443h28.168c4.408,0,8.289-1.722,10.93-4.85   c2.641-3.127,3.688-7.243,2.948-11.589l-11.49-67.517c3.826,3.352,8.802,5.289,14.032,5.289h0.001c0.782,0,1.571-0.044,2.348-0.131   c2.883-0.322,5.634-1.222,8.178-2.675c10.17-5.813,13.714-18.817,7.899-28.989L216.022,136.984z" fill="#ff3c6a"/>
	<path d="M153.307,116.837c32.204,0,58.404-26.206,58.404-58.418S185.511,0,153.307,0c-32.212,0-58.418,26.207-58.418,58.419   S121.095,116.837,153.307,116.837z" fill="#ff3c6a"/>
	<path d="M343.095,69.669c4.971,0,9-4.029,9-9s-4.029-9-9-9h-55.738c-7.168,0-13,5.832-13,13v350.513c0,7.168,5.832,13,13,13h55.738   c4.971,0,9-4.029,9-9s-4.029-9-9-9h-50.738V248.926h50.738c4.971,0,9-4.029,9-9s-4.029-9-9-9h-50.738V69.669H343.095z" fill="#ff3c6a"/>
	<path d="M389.768,85.419c14.888,0,27-12.112,27-27s-12.112-27-27-27s-27,12.112-27,27S374.88,85.419,389.768,85.419z    M389.768,49.419c4.963,0,9,4.037,9,9s-4.037,9-9,9s-9-4.037-9-9S384.805,49.419,389.768,49.419z" fill="#ff3c6a"/>
	<path d="M389.768,212.925c-14.888,0-27,12.112-27,27c0,14.888,12.112,27,27,27s27-12.112,27-27   C416.768,225.037,404.656,212.925,389.768,212.925z M389.768,248.925c-4.963,0-9-4.037-9-9c0-4.963,4.037-9,9-9s9,4.037,9,9   C398.768,244.888,394.731,248.925,389.768,248.925z" fill="#ff3c6a"/>
	<path d="M389.768,392.182c-14.888,0-27,12.112-27,27s12.112,27,27,27s27-12.112,27-27S404.656,392.182,389.768,392.182z    M389.768,428.182c-4.963,0-9-4.037-9-9s4.037-9,9-9s9,4.037,9,9S394.731,428.182,389.768,428.182z" fill="#ff3c6a"/>
</g>
<g>
</g>
<g>
</g>
<g>
</g>
<g>
</g>
<g>
</g>
<g>
</g>
<g>
</g>
<g>
</g>
<g>
</g>
<g>
</g>
<g>
</g>
<g>
</g>
<g>
</g>
<g>
</g>
<g>
</g>
</svg>
